<mxfile host="app.diagrams.net" modified="2022-04-17T07:42:11.558Z" agent="5.0 (Macintosh; Intel Mac OS X 10_15_7) AppleWebKit/537.36 (KHTML, like Gecko) Chrome/100.0.4896.75 Safari/537.36" etag="mavKg7rSndOvl_S4oqKS" version="17.4.3" type="github">
  <diagram id="LcumRcBRr6USi84tn0P9" name="Page-1">
    <mxGraphModel dx="1042" dy="507" grid="1" gridSize="10" guides="1" tooltips="1" connect="1" arrows="1" fold="1" page="1" pageScale="1" pageWidth="827" pageHeight="1169" math="0" shadow="0">
      <root>
        <mxCell id="0" />
        <mxCell id="1" parent="0" />
        <mxCell id="bTGz799TzCsgq-tL2QBZ-2" value="AWS Cloud" style="points=[[0,0],[0.25,0],[0.5,0],[0.75,0],[1,0],[1,0.25],[1,0.5],[1,0.75],[1,1],[0.75,1],[0.5,1],[0.25,1],[0,1],[0,0.75],[0,0.5],[0,0.25]];outlineConnect=0;gradientColor=none;html=1;whiteSpace=wrap;fontSize=12;fontStyle=0;container=1;pointerEvents=0;collapsible=0;recursiveResize=0;shape=mxgraph.aws4.group;grIcon=mxgraph.aws4.group_vpc;strokeColor=#248814;fillColor=none;verticalAlign=top;align=left;spacingLeft=30;fontColor=#AAB7B8;dashed=0;" parent="1" vertex="1">
          <mxGeometry x="30" y="20" width="890" height="730" as="geometry" />
        </mxCell>
        <mxCell id="V1oselqunodWBxak1BEi-10" value="" style="rounded=0;whiteSpace=wrap;html=1;" parent="bTGz799TzCsgq-tL2QBZ-2" vertex="1">
          <mxGeometry x="660" y="340" width="150" height="160" as="geometry" />
        </mxCell>
        <mxCell id="POhj-LKM1kwhmbA6X7bR-6" value="" style="edgeStyle=orthogonalEdgeStyle;rounded=0;orthogonalLoop=1;jettySize=auto;html=1;strokeColor=#0000FF;" parent="bTGz799TzCsgq-tL2QBZ-2" source="POhj-LKM1kwhmbA6X7bR-1" target="POhj-LKM1kwhmbA6X7bR-2" edge="1">
          <mxGeometry relative="1" as="geometry" />
        </mxCell>
        <mxCell id="POhj-LKM1kwhmbA6X7bR-1" value="Amazon S3" style="sketch=0;outlineConnect=0;fontColor=#232F3E;gradientColor=none;strokeColor=#ffffff;fillColor=#232F3E;dashed=0;verticalLabelPosition=middle;verticalAlign=bottom;align=center;html=1;whiteSpace=wrap;fontSize=10;fontStyle=1;spacing=3;shape=mxgraph.aws4.productIcon;prIcon=mxgraph.aws4.s3;" parent="bTGz799TzCsgq-tL2QBZ-2" vertex="1">
          <mxGeometry x="30" y="380" width="80" height="100" as="geometry" />
        </mxCell>
        <mxCell id="POhj-LKM1kwhmbA6X7bR-8" style="edgeStyle=orthogonalEdgeStyle;rounded=1;orthogonalLoop=1;jettySize=auto;html=1;strokeColor=#0000FF;entryX=0;entryY=0.5;entryDx=0;entryDy=0;entryPerimeter=0;" parent="bTGz799TzCsgq-tL2QBZ-2" source="POhj-LKM1kwhmbA6X7bR-2" target="V1oselqunodWBxak1BEi-46" edge="1">
          <mxGeometry relative="1" as="geometry">
            <mxPoint x="430" y="335" as="targetPoint" />
          </mxGeometry>
        </mxCell>
        <mxCell id="POhj-LKM1kwhmbA6X7bR-2" value="Amazon SageMaker" style="sketch=0;outlineConnect=0;fontColor=#232F3E;gradientColor=none;strokeColor=#ffffff;fillColor=#232F3E;dashed=0;verticalLabelPosition=middle;verticalAlign=bottom;align=center;html=1;whiteSpace=wrap;fontSize=10;fontStyle=1;spacing=3;shape=mxgraph.aws4.productIcon;prIcon=mxgraph.aws4.sagemaker;" parent="bTGz799TzCsgq-tL2QBZ-2" vertex="1">
          <mxGeometry x="214" y="375" width="80" height="110" as="geometry" />
        </mxCell>
        <mxCell id="POhj-LKM1kwhmbA6X7bR-7" style="edgeStyle=orthogonalEdgeStyle;rounded=1;orthogonalLoop=1;jettySize=auto;html=1;strokeColor=#0000FF;" parent="bTGz799TzCsgq-tL2QBZ-2" source="POhj-LKM1kwhmbA6X7bR-4" target="POhj-LKM1kwhmbA6X7bR-2" edge="1">
          <mxGeometry relative="1" as="geometry">
            <Array as="points">
              <mxPoint x="254" y="310" />
            </Array>
          </mxGeometry>
        </mxCell>
        <mxCell id="POhj-LKM1kwhmbA6X7bR-11" style="edgeStyle=orthogonalEdgeStyle;rounded=1;orthogonalLoop=1;jettySize=auto;html=1;strokeColor=#0000FF;" parent="bTGz799TzCsgq-tL2QBZ-2" source="POhj-LKM1kwhmbA6X7bR-4" target="POhj-LKM1kwhmbA6X7bR-10" edge="1">
          <mxGeometry relative="1" as="geometry">
            <Array as="points">
              <mxPoint x="69" y="230" />
              <mxPoint x="254" y="230" />
            </Array>
          </mxGeometry>
        </mxCell>
        <mxCell id="POhj-LKM1kwhmbA6X7bR-4" value="BERT Model" style="sketch=0;outlineConnect=0;fontColor=#232F3E;gradientColor=none;fillColor=#067F68;strokeColor=none;dashed=0;verticalLabelPosition=bottom;verticalAlign=top;align=center;html=1;fontSize=12;fontStyle=0;aspect=fixed;pointerEvents=1;shape=mxgraph.aws4.sagemaker_model;" parent="bTGz799TzCsgq-tL2QBZ-2" vertex="1">
          <mxGeometry x="30" y="240" width="78" height="78" as="geometry" />
        </mxCell>
        <mxCell id="POhj-LKM1kwhmbA6X7bR-9" value="Batch Job for History Data&amp;nbsp;" style="text;html=1;align=center;verticalAlign=middle;resizable=0;points=[];autosize=1;strokeColor=none;fillColor=none;" parent="bTGz799TzCsgq-tL2QBZ-2" vertex="1">
          <mxGeometry x="174" y="488.75" width="160" height="20" as="geometry" />
        </mxCell>
        <mxCell id="E6e51qAAqDUREMfuk0sP-5" style="edgeStyle=orthogonalEdgeStyle;rounded=1;orthogonalLoop=1;jettySize=auto;html=1;strokeColor=#0000FF;" parent="bTGz799TzCsgq-tL2QBZ-2" source="POhj-LKM1kwhmbA6X7bR-10" target="V1oselqunodWBxak1BEi-7" edge="1">
          <mxGeometry relative="1" as="geometry">
            <Array as="points">
              <mxPoint x="730" y="145" />
            </Array>
          </mxGeometry>
        </mxCell>
        <mxCell id="POhj-LKM1kwhmbA6X7bR-10" value="Amazon SageMaker" style="sketch=0;outlineConnect=0;fontColor=#232F3E;gradientColor=none;strokeColor=#ffffff;fillColor=#232F3E;dashed=0;verticalLabelPosition=middle;verticalAlign=bottom;align=center;html=1;whiteSpace=wrap;fontSize=10;fontStyle=1;spacing=3;shape=mxgraph.aws4.productIcon;prIcon=mxgraph.aws4.sagemaker;" parent="bTGz799TzCsgq-tL2QBZ-2" vertex="1">
          <mxGeometry x="214" y="90" width="80" height="110" as="geometry" />
        </mxCell>
        <mxCell id="POhj-LKM1kwhmbA6X7bR-12" value="Endpoint for Interactive Query" style="text;html=1;align=center;verticalAlign=middle;resizable=0;points=[];autosize=1;strokeColor=none;fillColor=none;" parent="bTGz799TzCsgq-tL2QBZ-2" vertex="1">
          <mxGeometry x="290" y="170" width="180" height="20" as="geometry" />
        </mxCell>
        <mxCell id="V1oselqunodWBxak1BEi-36" style="edgeStyle=orthogonalEdgeStyle;rounded=1;orthogonalLoop=1;jettySize=auto;html=1;" parent="bTGz799TzCsgq-tL2QBZ-2" source="V1oselqunodWBxak1BEi-7" target="POhj-LKM1kwhmbA6X7bR-10" edge="1">
          <mxGeometry relative="1" as="geometry">
            <Array as="points">
              <mxPoint x="750" y="110" />
            </Array>
          </mxGeometry>
        </mxCell>
        <mxCell id="V1oselqunodWBxak1BEi-7" value="Amazon EKS" style="sketch=0;outlineConnect=0;fontColor=#232F3E;gradientColor=none;strokeColor=#ffffff;fillColor=#232F3E;dashed=0;verticalLabelPosition=middle;verticalAlign=bottom;align=center;html=1;whiteSpace=wrap;fontSize=10;fontStyle=1;spacing=3;shape=mxgraph.aws4.productIcon;prIcon=mxgraph.aws4.eks;" parent="bTGz799TzCsgq-tL2QBZ-2" vertex="1">
          <mxGeometry x="700" y="200" width="80" height="100" as="geometry" />
        </mxCell>
        <mxCell id="V1oselqunodWBxak1BEi-8" value="" style="sketch=0;html=1;dashed=0;whitespace=wrap;fillColor=#2875E2;strokeColor=#ffffff;points=[[0.005,0.63,0],[0.1,0.2,0],[0.9,0.2,0],[0.5,0,0],[0.995,0.63,0],[0.72,0.99,0],[0.5,1,0],[0.28,0.99,0]];shape=mxgraph.kubernetes.icon;prIcon=pod" parent="bTGz799TzCsgq-tL2QBZ-2" vertex="1">
          <mxGeometry x="710" y="346" width="50" height="48" as="geometry" />
        </mxCell>
        <mxCell id="V1oselqunodWBxak1BEi-22" style="edgeStyle=orthogonalEdgeStyle;rounded=0;orthogonalLoop=1;jettySize=auto;html=1;strokeColor=#FF0000;" parent="bTGz799TzCsgq-tL2QBZ-2" source="V1oselqunodWBxak1BEi-9" target="V1oselqunodWBxak1BEi-17" edge="1">
          <mxGeometry relative="1" as="geometry" />
        </mxCell>
        <mxCell id="V1oselqunodWBxak1BEi-9" value="" style="shape=image;verticalLabelPosition=bottom;labelBackgroundColor=default;verticalAlign=top;aspect=fixed;imageAspect=0;image=https://fluentbit.io/images/logo.svg;imageBorder=default;" parent="bTGz799TzCsgq-tL2QBZ-2" vertex="1">
          <mxGeometry x="670.24" y="448.75" width="129.52" height="41.25" as="geometry" />
        </mxCell>
        <mxCell id="V1oselqunodWBxak1BEi-11" value="Search App" style="rounded=1;whiteSpace=wrap;html=1;" parent="bTGz799TzCsgq-tL2QBZ-2" vertex="1">
          <mxGeometry x="670.24" y="400.13" width="125" height="39.87" as="geometry" />
        </mxCell>
        <mxCell id="V1oselqunodWBxak1BEi-15" value="" style="endArrow=none;html=1;rounded=0;exitX=0;exitY=0;exitDx=0;exitDy=0;" parent="bTGz799TzCsgq-tL2QBZ-2" source="V1oselqunodWBxak1BEi-10" edge="1">
          <mxGeometry width="50" height="50" relative="1" as="geometry">
            <mxPoint x="675" y="340" as="sourcePoint" />
            <mxPoint x="709.2307692307693" y="260" as="targetPoint" />
          </mxGeometry>
        </mxCell>
        <mxCell id="V1oselqunodWBxak1BEi-16" value="" style="endArrow=none;html=1;rounded=0;exitX=1;exitY=0;exitDx=0;exitDy=0;" parent="bTGz799TzCsgq-tL2QBZ-2" source="V1oselqunodWBxak1BEi-10" edge="1">
          <mxGeometry width="50" height="50" relative="1" as="geometry">
            <mxPoint x="685" y="365" as="sourcePoint" />
            <mxPoint x="766.9230769230769" y="260" as="targetPoint" />
          </mxGeometry>
        </mxCell>
        <mxCell id="V1oselqunodWBxak1BEi-29" style="edgeStyle=orthogonalEdgeStyle;rounded=0;orthogonalLoop=1;jettySize=auto;html=1;exitX=0;exitY=0.5;exitDx=0;exitDy=0;exitPerimeter=0;entryX=1;entryY=0.5;entryDx=0;entryDy=0;entryPerimeter=0;strokeColor=#FF0000;" parent="bTGz799TzCsgq-tL2QBZ-2" source="V1oselqunodWBxak1BEi-17" target="V1oselqunodWBxak1BEi-25" edge="1">
          <mxGeometry relative="1" as="geometry" />
        </mxCell>
        <mxCell id="V1oselqunodWBxak1BEi-17" value="" style="sketch=0;points=[[0,0,0],[0.25,0,0],[0.5,0,0],[0.75,0,0],[1,0,0],[0,1,0],[0.25,1,0],[0.5,1,0],[0.75,1,0],[1,1,0],[0,0.25,0],[0,0.5,0],[0,0.75,0],[1,0.25,0],[1,0.5,0],[1,0.75,0]];outlineConnect=0;fontColor=#232F3E;gradientColor=#945DF2;gradientDirection=north;fillColor=#5A30B5;strokeColor=#ffffff;dashed=0;verticalLabelPosition=bottom;verticalAlign=top;align=center;html=1;fontSize=12;fontStyle=0;aspect=fixed;shape=mxgraph.aws4.resourceIcon;resIcon=mxgraph.aws4.kinesis_data_firehose;" parent="bTGz799TzCsgq-tL2QBZ-2" vertex="1">
          <mxGeometry x="696" y="610" width="78" height="78" as="geometry" />
        </mxCell>
        <mxCell id="V1oselqunodWBxak1BEi-21" value="Semantic Search POD" style="text;html=1;align=center;verticalAlign=middle;resizable=0;points=[];autosize=1;strokeColor=none;fillColor=none;" parent="bTGz799TzCsgq-tL2QBZ-2" vertex="1">
          <mxGeometry x="665" y="505" width="140" height="20" as="geometry" />
        </mxCell>
        <mxCell id="V1oselqunodWBxak1BEi-23" value="Kinesis Data Firehose" style="text;html=1;align=center;verticalAlign=middle;resizable=0;points=[];autosize=1;strokeColor=none;fillColor=none;" parent="bTGz799TzCsgq-tL2QBZ-2" vertex="1">
          <mxGeometry x="680" y="690" width="130" height="20" as="geometry" />
        </mxCell>
        <mxCell id="V1oselqunodWBxak1BEi-24" value="Corpus Data" style="text;html=1;align=center;verticalAlign=middle;resizable=0;points=[];autosize=1;strokeColor=none;fillColor=none;" parent="bTGz799TzCsgq-tL2QBZ-2" vertex="1">
          <mxGeometry x="30" y="480" width="80" height="20" as="geometry" />
        </mxCell>
        <mxCell id="V1oselqunodWBxak1BEi-30" style="edgeStyle=orthogonalEdgeStyle;rounded=0;orthogonalLoop=1;jettySize=auto;html=1;exitX=0;exitY=0.5;exitDx=0;exitDy=0;exitPerimeter=0;strokeColor=#FF0000;" parent="bTGz799TzCsgq-tL2QBZ-2" source="V1oselqunodWBxak1BEi-25" target="V1oselqunodWBxak1BEi-27" edge="1">
          <mxGeometry relative="1" as="geometry" />
        </mxCell>
        <mxCell id="V1oselqunodWBxak1BEi-25" value="" style="sketch=0;points=[[0,0,0],[0.25,0,0],[0.5,0,0],[0.75,0,0],[1,0,0],[0,1,0],[0.25,1,0],[0.5,1,0],[0.75,1,0],[1,1,0],[0,0.25,0],[0,0.5,0],[0,0.75,0],[1,0.25,0],[1,0.5,0],[1,0.75,0]];outlineConnect=0;fontColor=#232F3E;gradientColor=#60A337;gradientDirection=north;fillColor=#277116;strokeColor=#ffffff;dashed=0;verticalLabelPosition=bottom;verticalAlign=top;align=center;html=1;fontSize=12;fontStyle=0;aspect=fixed;shape=mxgraph.aws4.resourceIcon;resIcon=mxgraph.aws4.s3;" parent="bTGz799TzCsgq-tL2QBZ-2" vertex="1">
          <mxGeometry x="560" y="610" width="78" height="78" as="geometry" />
        </mxCell>
        <mxCell id="V1oselqunodWBxak1BEi-37" style="edgeStyle=orthogonalEdgeStyle;rounded=1;orthogonalLoop=1;jettySize=auto;html=1;exitX=0;exitY=0.5;exitDx=0;exitDy=0;exitPerimeter=0;strokeColor=#FF0000;" parent="bTGz799TzCsgq-tL2QBZ-2" source="V1oselqunodWBxak1BEi-27" target="V1oselqunodWBxak1BEi-31" edge="1">
          <mxGeometry relative="1" as="geometry" />
        </mxCell>
        <mxCell id="V1oselqunodWBxak1BEi-38" style="edgeStyle=orthogonalEdgeStyle;rounded=1;orthogonalLoop=1;jettySize=auto;html=1;strokeColor=#FF0000;entryX=0.5;entryY=1;entryDx=0;entryDy=0;entryPerimeter=0;" parent="bTGz799TzCsgq-tL2QBZ-2" source="V1oselqunodWBxak1BEi-27" target="V1oselqunodWBxak1BEi-46" edge="1">
          <mxGeometry relative="1" as="geometry">
            <mxPoint x="470" y="395" as="targetPoint" />
          </mxGeometry>
        </mxCell>
        <mxCell id="V1oselqunodWBxak1BEi-27" value="" style="sketch=0;points=[[0,0,0],[0.25,0,0],[0.5,0,0],[0.75,0,0],[1,0,0],[0,1,0],[0.25,1,0],[0.5,1,0],[0.75,1,0],[1,1,0],[0,0.25,0],[0,0.5,0],[0,0.75,0],[1,0.25,0],[1,0.5,0],[1,0.75,0]];outlineConnect=0;fontColor=#232F3E;gradientColor=#945DF2;gradientDirection=north;fillColor=#5A30B5;strokeColor=#ffffff;dashed=0;verticalLabelPosition=bottom;verticalAlign=top;align=center;html=1;fontSize=12;fontStyle=0;aspect=fixed;shape=mxgraph.aws4.resourceIcon;resIcon=mxgraph.aws4.glue;" parent="bTGz799TzCsgq-tL2QBZ-2" vertex="1">
          <mxGeometry x="428" y="610" width="78" height="78" as="geometry" />
        </mxCell>
        <mxCell id="rXdaYfQIPGEM3pezVwId-1" style="edgeStyle=orthogonalEdgeStyle;rounded=1;orthogonalLoop=1;jettySize=auto;html=1;entryX=0.25;entryY=1;entryDx=0;entryDy=0;entryPerimeter=0;strokeColor=#FF0000;" edge="1" parent="bTGz799TzCsgq-tL2QBZ-2" source="V1oselqunodWBxak1BEi-31" target="V1oselqunodWBxak1BEi-46">
          <mxGeometry relative="1" as="geometry">
            <Array as="points">
              <mxPoint x="340" y="490" />
              <mxPoint x="448" y="490" />
            </Array>
          </mxGeometry>
        </mxCell>
        <mxCell id="rXdaYfQIPGEM3pezVwId-2" value="Deploy LTR Model" style="edgeLabel;html=1;align=center;verticalAlign=middle;resizable=0;points=[];" vertex="1" connectable="0" parent="rXdaYfQIPGEM3pezVwId-1">
          <mxGeometry x="-0.5674" y="-3" relative="1" as="geometry">
            <mxPoint x="-3" y="18" as="offset" />
          </mxGeometry>
        </mxCell>
        <mxCell id="V1oselqunodWBxak1BEi-31" value="" style="sketch=0;points=[[0,0,0],[0.25,0,0],[0.5,0,0],[0.75,0,0],[1,0,0],[0,1,0],[0.25,1,0],[0.5,1,0],[0.75,1,0],[1,1,0],[0,0.25,0],[0,0.5,0],[0,0.75,0],[1,0.25,0],[1,0.5,0],[1,0.75,0]];outlineConnect=0;fontColor=#232F3E;gradientColor=#4AB29A;gradientDirection=north;fillColor=#116D5B;strokeColor=#ffffff;dashed=0;verticalLabelPosition=bottom;verticalAlign=top;align=center;html=1;fontSize=12;fontStyle=0;aspect=fixed;shape=mxgraph.aws4.resourceIcon;resIcon=mxgraph.aws4.sagemaker;" parent="bTGz799TzCsgq-tL2QBZ-2" vertex="1">
          <mxGeometry x="280" y="610" width="78" height="78" as="geometry" />
        </mxCell>
        <mxCell id="V1oselqunodWBxak1BEi-41" value="LTR Model" style="text;html=1;align=center;verticalAlign=middle;resizable=0;points=[];autosize=1;strokeColor=none;fillColor=none;" parent="bTGz799TzCsgq-tL2QBZ-2" vertex="1">
          <mxGeometry x="280" y="700" width="70" height="20" as="geometry" />
        </mxCell>
        <mxCell id="rXdaYfQIPGEM3pezVwId-3" style="edgeStyle=orthogonalEdgeStyle;rounded=1;orthogonalLoop=1;jettySize=auto;html=1;entryX=0;entryY=0.75;entryDx=0;entryDy=0;strokeColor=#000000;" edge="1" parent="bTGz799TzCsgq-tL2QBZ-2" source="V1oselqunodWBxak1BEi-46" target="V1oselqunodWBxak1BEi-11">
          <mxGeometry relative="1" as="geometry" />
        </mxCell>
        <mxCell id="V1oselqunodWBxak1BEi-46" value="" style="sketch=0;points=[[0,0,0],[0.25,0,0],[0.5,0,0],[0.75,0,0],[1,0,0],[0,1,0],[0.25,1,0],[0.5,1,0],[0.75,1,0],[1,1,0],[0,0.25,0],[0,0.5,0],[0,0.75,0],[1,0.25,0],[1,0.5,0],[1,0.75,0]];outlineConnect=0;fontColor=#232F3E;gradientColor=#945DF2;gradientDirection=north;fillColor=#5A30B5;strokeColor=#ffffff;dashed=0;verticalLabelPosition=bottom;verticalAlign=top;align=center;html=1;fontSize=12;fontStyle=0;aspect=fixed;shape=mxgraph.aws4.resourceIcon;resIcon=mxgraph.aws4.elasticsearch_service;" parent="bTGz799TzCsgq-tL2QBZ-2" vertex="1">
          <mxGeometry x="428" y="391" width="78" height="78" as="geometry" />
        </mxCell>
        <mxCell id="V1oselqunodWBxak1BEi-50" value="" style="edgeStyle=orthogonalEdgeStyle;html=1;endArrow=none;elbow=vertical;startArrow=block;startFill=1;strokeColor=#0000FF;rounded=1;entryX=0;entryY=0.25;entryDx=0;entryDy=0;exitX=1;exitY=0.25;exitDx=0;exitDy=0;exitPerimeter=0;" parent="bTGz799TzCsgq-tL2QBZ-2" source="V1oselqunodWBxak1BEi-46" target="V1oselqunodWBxak1BEi-11" edge="1">
          <mxGeometry width="100" relative="1" as="geometry">
            <mxPoint x="460" y="260" as="sourcePoint" />
            <mxPoint x="560" y="260" as="targetPoint" />
          </mxGeometry>
        </mxCell>
        <mxCell id="E6e51qAAqDUREMfuk0sP-6" value="OpenSearch" style="text;html=1;align=center;verticalAlign=middle;resizable=0;points=[];autosize=1;strokeColor=none;fillColor=none;" parent="bTGz799TzCsgq-tL2QBZ-2" vertex="1">
          <mxGeometry x="428" y="360" width="80" height="20" as="geometry" />
        </mxCell>
        <mxCell id="V1oselqunodWBxak1BEi-39" value="Feature Loggiing" style="text;html=1;align=center;verticalAlign=middle;resizable=0;points=[];autosize=1;strokeColor=none;fillColor=none;" parent="bTGz799TzCsgq-tL2QBZ-2" vertex="1">
          <mxGeometry x="412" y="565" width="110" height="20" as="geometry" />
        </mxCell>
        <mxCell id="V1oselqunodWBxak1BEi-28" value="ETL" style="text;html=1;align=center;verticalAlign=middle;resizable=0;points=[];autosize=1;strokeColor=none;fillColor=none;" parent="bTGz799TzCsgq-tL2QBZ-2" vertex="1">
          <mxGeometry x="447" y="690" width="40" height="20" as="geometry" />
        </mxCell>
        <mxCell id="V1oselqunodWBxak1BEi-26" value="User Behavior Data" style="text;html=1;align=center;verticalAlign=middle;resizable=0;points=[];autosize=1;strokeColor=none;fillColor=none;" parent="bTGz799TzCsgq-tL2QBZ-2" vertex="1">
          <mxGeometry x="545" y="690" width="120" height="20" as="geometry" />
        </mxCell>
        <mxCell id="E6e51qAAqDUREMfuk0sP-3" style="edgeStyle=orthogonalEdgeStyle;rounded=0;orthogonalLoop=1;jettySize=auto;html=1;exitX=0;exitY=0.25;exitDx=0;exitDy=0;entryX=1;entryY=0.25;entryDx=0;entryDy=0;" parent="1" source="V1oselqunodWBxak1BEi-6" target="V1oselqunodWBxak1BEi-11" edge="1">
          <mxGeometry relative="1" as="geometry" />
        </mxCell>
        <mxCell id="V1oselqunodWBxak1BEi-6" value="" style="aspect=fixed;perimeter=ellipsePerimeter;html=1;align=center;shadow=0;dashed=0;spacingTop=3;image;image=img/lib/active_directory/laptop_client.svg;" parent="1" vertex="1">
          <mxGeometry x="990" y="395" width="76.5" height="85" as="geometry" />
        </mxCell>
        <mxCell id="V1oselqunodWBxak1BEi-20" value="Client" style="text;html=1;align=center;verticalAlign=middle;resizable=0;points=[];autosize=1;strokeColor=none;fillColor=none;" parent="1" vertex="1">
          <mxGeometry x="1010" y="480" width="50" height="20" as="geometry" />
        </mxCell>
        <mxCell id="V1oselqunodWBxak1BEi-54" value="" style="endArrow=none;html=1;rounded=1;strokeColor=#000000;" parent="1" edge="1">
          <mxGeometry width="50" height="50" relative="1" as="geometry">
            <mxPoint x="945" y="30" as="sourcePoint" />
            <mxPoint x="995" y="30" as="targetPoint" />
          </mxGeometry>
        </mxCell>
        <mxCell id="V1oselqunodWBxak1BEi-56" value="Query Data" style="edgeLabel;html=1;align=center;verticalAlign=middle;resizable=0;points=[];" parent="V1oselqunodWBxak1BEi-54" vertex="1" connectable="0">
          <mxGeometry x="0.12" relative="1" as="geometry">
            <mxPoint x="57" as="offset" />
          </mxGeometry>
        </mxCell>
        <mxCell id="V1oselqunodWBxak1BEi-57" value="" style="endArrow=none;html=1;rounded=1;strokeColor=#0000FF;" parent="1" edge="1">
          <mxGeometry width="50" height="50" relative="1" as="geometry">
            <mxPoint x="945" y="60" as="sourcePoint" />
            <mxPoint x="995" y="60" as="targetPoint" />
          </mxGeometry>
        </mxCell>
        <mxCell id="V1oselqunodWBxak1BEi-58" value="Vector Data" style="edgeLabel;html=1;align=center;verticalAlign=middle;resizable=0;points=[];" parent="V1oselqunodWBxak1BEi-57" vertex="1" connectable="0">
          <mxGeometry x="0.12" relative="1" as="geometry">
            <mxPoint x="57" as="offset" />
          </mxGeometry>
        </mxCell>
        <mxCell id="V1oselqunodWBxak1BEi-59" value="" style="endArrow=none;html=1;rounded=1;strokeColor=#FF0000;" parent="1" edge="1">
          <mxGeometry width="50" height="50" relative="1" as="geometry">
            <mxPoint x="945" y="90" as="sourcePoint" />
            <mxPoint x="995" y="90" as="targetPoint" />
          </mxGeometry>
        </mxCell>
        <mxCell id="V1oselqunodWBxak1BEi-60" value="User Behavior Data" style="edgeLabel;html=1;align=center;verticalAlign=middle;resizable=0;points=[];" parent="V1oselqunodWBxak1BEi-59" vertex="1" connectable="0">
          <mxGeometry x="0.12" relative="1" as="geometry">
            <mxPoint x="57" as="offset" />
          </mxGeometry>
        </mxCell>
        <mxCell id="E6e51qAAqDUREMfuk0sP-4" style="edgeStyle=orthogonalEdgeStyle;rounded=0;orthogonalLoop=1;jettySize=auto;html=1;exitX=1;exitY=0.75;exitDx=0;exitDy=0;entryX=0;entryY=0.75;entryDx=0;entryDy=0;" parent="1" source="V1oselqunodWBxak1BEi-11" target="V1oselqunodWBxak1BEi-6" edge="1">
          <mxGeometry relative="1" as="geometry" />
        </mxCell>
      </root>
    </mxGraphModel>
  </diagram>
</mxfile>
